<svg width="16" height="18" viewBox="0 0 16 18" fill="none" xmlns="http://www.w3.org/2000/svg">
<path d="M8 17.3327C7.31818 17.3327 6.66682 17.0583 5.36411 16.5096C2.12137 15.1438 0.5 14.4609 0.5 13.3122L0.5 5.28463M8 17.3327C8.68182 17.3327 9.33318 17.0583 10.6359 16.5096C13.8786 15.1438 15.5 14.4609 15.5 13.3122L15.5 5.28463M8 17.3327L8 9.02368M15.5 5.28463C15.5 5.795 14.832 6.11728 13.4961 6.76185L11.0617 7.93635C9.55931 8.66124 8.80809 9.02368 8 9.02368M15.5 5.28463C15.5 4.77427 14.832 4.45199 13.4961 3.80742L12.2038 3.18394M0.5 5.28463C0.5 5.795 1.16798 6.11728 2.50393 6.76185L4.93827 7.93635C6.44069 8.66124 7.19191 9.02368 8 9.02368M0.5 5.28463C0.5 4.77427 1.16798 4.45199 2.50393 3.80742L3.83333 3.16602M3 9.85458L4.66667 10.6855" stroke="white" stroke-linecap="round" stroke-linejoin="round"/>
<path d="M7.50016 6.49935C7.50016 6.77549 7.72402 6.99935 8.00016 6.99935C8.27631 6.99935 8.50016 6.77549 8.50016 6.49935L7.50016 6.49935ZM7.16683 1.35637L6.78653 1.03176L6.78653 1.03176L7.16683 1.35637ZM5.95319 2.00807C5.77392 2.21811 5.79885 2.53371 6.00889 2.71298C6.21892 2.89226 6.53452 2.86733 6.7138 2.65729L5.95319 2.00807ZM9.28653 2.65729C9.4658 2.86733 9.7814 2.89226 9.99144 2.71298C10.2015 2.53371 10.2264 2.21811 10.0471 2.00807L9.28653 2.65729ZM8.8335 1.35637L9.2138 1.03176L9.2138 1.03176L8.8335 1.35637ZM7.50016 0.666016L7.50016 6.49935L8.50016 6.49935L8.50016 0.666016L7.50016 0.666016ZM6.78653 1.03176L5.95319 2.00807L6.7138 2.65729L7.54713 1.68098L6.78653 1.03176ZM10.0471 2.00807L9.2138 1.03176L8.45319 1.68098L9.28653 2.65729L10.0471 2.00807ZM7.54713 1.68098C7.75311 1.43966 7.87502 1.29852 7.9725 1.21138C8.06286 1.13062 8.0575 1.16602 8.00016 1.16602L8.00016 0.166016C7.69875 0.166016 7.47314 0.316474 7.30606 0.465825C7.1461 0.608811 6.97338 0.81285 6.78653 1.03176L7.54713 1.68098ZM9.2138 1.03176C9.02694 0.81285 8.85423 0.608811 8.69426 0.465825C8.52718 0.316475 8.30157 0.166016 8.00016 0.166016L8.00016 1.16602C7.94283 1.16602 7.93747 1.13062 8.02782 1.21138C8.1253 1.29852 8.24721 1.43966 8.45319 1.68098L9.2138 1.03176Z" fill="white"/>
</svg>
