<svg width="19" height="20" viewBox="0 0 19 20" fill="none" xmlns="http://www.w3.org/2000/svg">
<path d="M16.0833 6.06527L8.99997 10.0005M8.99997 10.0005L1.91664 6.06527M8.99997 10.0005L9 17.9171M10.6667 17.4079L9.64753 17.9741C9.41119 18.1054 9.29302 18.171 9.16788 18.1968C9.05712 18.2195 8.94288 18.2195 8.83213 18.1968C8.70698 18.171 8.58881 18.1054 8.35248 17.9741L2.18581 14.5481C1.93621 14.4095 1.8114 14.3401 1.72053 14.2415C1.64013 14.1543 1.57929 14.0509 1.54207 13.9382C1.5 13.8109 1.5 13.6681 1.5 13.3826V6.61835C1.5 6.33281 1.5 6.19005 1.54207 6.06271C1.57929 5.95007 1.64013 5.84667 1.72053 5.75942C1.8114 5.66081 1.93621 5.59148 2.18581 5.45281L8.35248 2.02688C8.58881 1.89558 8.70698 1.82993 8.83213 1.80419C8.94288 1.78141 9.05712 1.78141 9.16788 1.80419C9.29302 1.82993 9.41119 1.89558 9.64753 2.02688L15.8142 5.4528C16.0638 5.59147 16.1886 5.66081 16.2795 5.75942C16.3599 5.84666 16.4207 5.95007 16.4579 6.06271C16.5 6.19004 16.5 6.33281 16.5 6.61835L16.5 10.4171M5.25 3.75048L12.75 7.91714M12.3333 15.0005L14 16.6671L17.3333 13.3338" stroke="white" stroke-width="1.66667" stroke-linecap="round" stroke-linejoin="round"/>
</svg>
